<?xml version="1.0" encoding="UTF-8"?>
<!-- Generated by Pixelmator Pro 4.0 -->
<svg width="902" height="900" viewBox="0 0 902 900" xmlns="http://www.w3.org/2000/svg">
    <g id="-">
        <path id="path1" fill="#4db8a8" fill-rule="evenodd" stroke="#000000" stroke-width="3" stroke-linecap="round" stroke-linejoin="round" d="M 551 479 L 551 511 C 551 511 651.760925 514.448181 655 513 C 658.239075 511.551819 654.409607 508.046082 655 507 C 655.590393 505.953918 663 507 663 507 C 663 507 662.947266 500.554474 663 499 C 663.052734 497.445526 676.948425 494.902618 676 493 C 675.051575 491.097382 669 484 669 484 L 681 478 L 674 470 L 637 476 L 551 479 Z"/>
        <path id="path2" fill="#4db8a8" fill-rule="evenodd" stroke="#000000" stroke-width="3" stroke-linecap="round" stroke-linejoin="round" d="M 542 449 L 609 449 L 683 444 L 680 437 L 686 431 L 680 425 L 685 416 L 679 408 L 604 415 L 544 415 L 542 449 Z"/>
        <g id="g1">
            <path id="path3" fill="#3d9688" fill-rule="evenodd" stroke="#000000" stroke-width="3" stroke-linecap="round" stroke-linejoin="round" d="M 578 104 L 571 84 L 565 82 L 556 91 L 553 111 L 575 124 L 578 104 Z"/>
            <path id="path4" fill="#3d9688" fill-rule="evenodd" stroke="#000000" stroke-width="3" stroke-linecap="round" stroke-linejoin="round" d="M 456 121 L 442 71 L 436 57 L 418 48 L 401 54 L 394 71 L 395 92 L 417 134 L 456 121 Z"/>
            <path id="path5" fill="#3d9688" fill-rule="evenodd" stroke="#000000" stroke-width="3" stroke-linecap="round" stroke-linejoin="round" d="M 337 225 L 293 216 L 265 216 L 243 224 L 239 238 L 246 260 L 270 269 L 303 277 L 327 279 L 337 225 Z"/>
            <path id="path6" fill="#3d9688" fill-rule="evenodd" stroke="#000000" stroke-width="3" stroke-linecap="round" stroke-linejoin="round" d="M 330 428 L 295 430 L 274 436 L 266 449 L 274 463 L 300 473 L 327 474 L 330 428 Z"/>
            <path id="path7" fill="#3d9688" fill-rule="evenodd" stroke="#000000" stroke-width="3" stroke-linecap="round" stroke-linejoin="round" d="M 303 590 L 273 586 L 263 591 L 267 604 L 288 623 L 303 590 Z"/>
        </g>
        <g id="g2">
            <path id="path8" fill="#4db8a8" fill-rule="evenodd" stroke="#000000" stroke-width="3" stroke-linecap="round" stroke-linejoin="round" d="M 526 118 L 524 73 L 516 56 L 506 50 L 489 57 L 483 68 L 487 120 L 526 118 Z"/>
            <path id="path9" fill="#4db8a8" fill-rule="evenodd" stroke="#000000" stroke-width="3" stroke-linecap="round" stroke-linejoin="round" d="M 389 145 L 355 117 L 339 107 L 318 100 L 300 105 L 295 115 L 301 139 L 326 170 L 355 187 L 389 145 Z"/>
            <path id="path10" fill="#4db8a8" fill-rule="evenodd" stroke="#000000" stroke-width="3" stroke-linecap="round" stroke-linejoin="round" d="M 332 337 L 290 333 L 270 336 L 257 345 L 257 354 L 277 372 L 303 380 L 333 382 L 332 337 Z"/>
            <path id="path11" fill="#4db8a8" fill-rule="evenodd" stroke="#000000" stroke-width="3" stroke-linecap="round" stroke-linejoin="round" d="M 319 524 L 286 522 L 273 527 L 280 540 L 298 549 L 314 555 L 319 524 Z"/>
            <path id="path12" fill="#4db8a8" fill-rule="evenodd" stroke="#000000" stroke-width="3" stroke-linecap="round" stroke-linejoin="round" d="M 262 649 L 241 632 L 229 632 L 224 642 L 231 666 L 262 649 Z"/>
        </g>
        <path id="path13" fill="#4db8a8" fill-rule="evenodd" stroke="#000000" stroke-width="3" stroke-linecap="round" stroke-linejoin="round" d="M 507 833 C 517.326538 844.1427 572.880066 847.477844 588 846 C 597.038574 845.116577 634.073181 838.08136 634 829 C 633.941467 821.737793 603.74176 818.387085 593 809 C 581.627014 799.061279 581.743103 599.528931 579 544 C 576.940491 502.308105 575.134888 369.019653 581 324 C 581.88031 317.24292 601.974304 302.181885 608 299 C 613.879333 295.895447 638.804993 296.158142 643 291 C 660.997253 268.870544 660.512451 161.556091 646 137 C 639.720459 126.374573 599.065491 108.599365 587 106 C 553.450012 98.772034 433.793365 104.076111 402 117 C 388.621033 122.438477 350.929749 155.929688 343 168 C 335.539124 179.356567 323.023956 224.563477 321 238 C 315.979675 271.328247 324.194458 386.36731 322 420 C 320.040741 450.028015 309.088531 552.313416 300 581 C 296.472809 592.133057 279.38208 628.868164 271 637 C 263.628296 644.151611 231.014648 658.720947 221 661 C 206.735092 664.246277 147.13176 647.299927 142 661 C 135.968613 677.101746 197.535355 712.703857 212 722 C 224.828506 730.244629 272.134949 752.597717 287 756 C 294.403412 757.694458 322.446411 751.819336 328 757 C 339.560974 767.784668 324.440063 831.214172 336 842 C 352.523865 857.417358 437.476288 854.460999 458 845 C 461.467041 843.401733 471.571411 832.774658 471 829 C 470.500305 825.699158 459.162415 820.069824 456 819 C 450.55072 817.156494 429.067749 821.067749 425 817 C 416.864471 808.864502 413.454437 763.685486 421 755 C 430.622192 743.924194 488.834625 739.481873 500 749 C 511.878998 759.126465 496.389709 821.551086 507 833 Z"/>
        <path id="path14" fill="none" stroke="#000000" stroke-width="3" stroke-linecap="round" stroke-linejoin="round" d="M 547 240 C 547 240 559.862488 248.66571 568 250 C 585.794556 252.917664 654 254 654 254"/>
        <path id="path15" fill="#000000" fill-rule="evenodd" stroke="#000000" stroke-width="3" stroke-linecap="round" stroke-linejoin="round" d="M 511.989044 178.950684 C 508.439178 179.024109 503.032227 181.05072 502.999817 187.083801 C 502.967407 193.116882 508.644623 195.971252 510.704865 196.072998 C 512.765137 196.174805 517.539551 195.89325 518.837952 193.504639 C 520.136353 191.116089 520.700684 188.023804 520.978271 186.227661 C 521.255798 184.431519 518.806091 180.80011 517.553772 179.806824 C 516.301514 178.813477 515.538879 178.877258 511.989044 178.950684 Z"/>
        <g id="g3">
            <path id="path16" fill="#3d9688" fill-rule="evenodd" stroke="#000000" stroke-width="3" stroke-linecap="round" stroke-linejoin="round" d="M 375 352.013733 C 372.20517 352.265869 370.490723 354.453918 370 355.626038 C 369.509277 356.798218 369.454803 394.68399 370 397.770294 C 370.545197 400.856567 374.440002 405.166534 376 404.994995 C 377.559998 404.823456 383.017334 402.417419 383 400.178528 C 382.982666 397.939606 383.668274 360.330994 383 359.238403 C 382.331726 358.145874 382.784027 354.353394 381 353.217834 C 379.215973 352.082275 377.79483 351.761536 375 352.013733 Z"/>
            <path id="path17" fill="#3d9688" fill-rule="evenodd" stroke="#000000" stroke-width="3" stroke-linecap="round" stroke-linejoin="round" d="M 343.874023 460.93045 L 341.072998 487.580322 C 341.072998 487.580322 341.780701 493.23938 347.201721 493.939911 C 352.622742 494.640472 352.587402 490.817017 353.856659 488.107452 C 355.125885 485.397888 357.761078 450.959167 357.761078 450.959167 C 357.761078 450.959167 357.124878 448.632782 355.112671 447.414825 C 353.100433 446.196869 349.989136 446.57312 348.135132 449.130951 C 346.281158 451.688751 347.109924 450.412537 345.384918 453.740845 C 343.659882 457.069153 343.874023 460.93045 343.874023 460.93045 Z"/>
            <path id="path18" fill="#3d9688" fill-rule="evenodd" stroke="#000000" stroke-width="3" stroke-linecap="round" stroke-linejoin="round" d="M 371.175415 451.166718 C 371.175415 451.166718 366.184601 479.50473 367.100464 483.561127 C 368.016327 487.617554 371.209381 490.606476 373.028992 490.917114 C 374.848572 491.227753 378.67807 487.260895 378.944153 485.647583 C 379.210266 484.034241 382.635193 455.044739 382.356262 453.183502 C 382.077362 451.322266 382.064209 445.871796 379.829468 445.343445 C 377.594727 444.815094 373.876587 444.158569 372.36319 446.241913 C 370.849823 448.325256 371.175415 451.166718 371.175415 451.166718 Z"/>
            <path id="path19" fill="#3d9688" fill-rule="evenodd" stroke="#000000" stroke-width="3" stroke-linecap="round" stroke-linejoin="round" d="M 348 353 C 348 353 345.382202 353.553589 344 356 C 342.617798 358.446411 342.343414 397.171875 343 398 C 343.656586 398.828125 346.850616 404.096191 351 405 C 355.149384 405.903809 356.734741 402.178772 358 400 C 359.265259 397.821228 359.402222 359.467224 358 358 C 356.597778 356.532776 354.716003 353.195435 354 352 C 353.283997 350.804565 348 353 348 353 Z"/>
            <path id="--4" fill="#3d9688" fill-rule="evenodd" stroke="#000000" stroke-width="3" stroke-linecap="round" stroke-linejoin="round" d="M 336.418152 618.91748 C 336.418152 618.91748 334.612946 617.839722 332.600128 618.44751 C 330.587311 619.055359 311.376556 640.067993 311.353638 640.866577 C 311.33075 641.665161 310.609528 646.227356 312.594635 648.908875 C 314.579742 651.590393 317.340515 650.391113 319.153198 649.867859 C 320.965881 649.344604 339.913452 628.462524 339.814117 626.921631 C 339.714813 625.380676 340.254639 622.565186 340.423431 621.534546 C 340.592255 620.503967 336.418152 618.91748 336.418152 618.91748 Z"/>
            <path id="path20" fill="#3d9688" fill-rule="evenodd" stroke="#000000" stroke-width="3" stroke-linecap="round" stroke-linejoin="round" d="M 361.507904 203.102051 L 357.991272 231.823669 C 357.991272 231.823669 357.291809 236.758362 362.427277 238.488403 C 367.562775 240.218384 369.780396 236.778625 370.737457 235.292542 C 371.694489 233.806519 375.563416 207.24762 374.322205 205.792297 C 373.081024 204.336975 372.402924 202.622009 368.617523 202.154907 C 364.832123 201.687744 361.507904 203.102051 361.507904 203.102051 Z"/>
            <path id="--5" fill="#3d9688" fill-rule="evenodd" stroke="#000000" stroke-width="3" stroke-linecap="round" stroke-linejoin="round" d="M 269.013245 658.158447 L 243.334717 670.679443 C 243.334717 670.679443 238.871048 672.750732 240.231461 677.99231 C 241.591873 683.233887 245.64389 683.241943 247.393875 683.244507 C 249.143845 683.247192 273.224274 672.18689 273.753723 670.361328 C 274.283173 668.535767 275.333618 667.042908 273.662201 663.614563 C 271.990753 660.186279 269.013245 658.158447 269.013245 658.158447 Z"/>
            <path id="--6" fill="#3d9688" fill-rule="evenodd" stroke="#000000" stroke-width="3" stroke-linecap="round" stroke-linejoin="round" d="M 354.241364 280.395508 L 355.235413 308.946716 C 355.235413 308.946716 355.312103 313.866943 360.65387 314.756104 C 365.995636 315.645264 367.651062 311.946838 368.365234 310.349182 C 369.079407 308.751587 368.769745 282.254395 367.317352 281.028198 C 365.86496 279.802002 364.928406 278.235168 361.116669 278.367676 C 357.304901 278.500183 354.241364 280.395508 354.241364 280.395508 Z"/>
            <path id="--3" fill="#3d9688" fill-rule="evenodd" stroke="#000000" stroke-width="3" stroke-linecap="round" stroke-linejoin="round" d="M 370.085907 546.779419 L 362.699768 572.537964 C 362.699768 572.537964 359.923676 577.519897 354.634949 576.138672 C 349.346252 574.757446 350.81131 571.225647 350.649506 568.237915 C 350.487701 565.250122 360.945343 532.33197 360.945343 532.33197 C 360.945343 532.33197 362.406708 530.41333 364.728668 530.037842 C 367.050629 529.662354 369.794434 531.176758 370.555237 534.242798 C 371.316071 537.308899 371.025696 535.815186 371.378326 539.547302 C 371.730927 543.279419 370.085907 546.779419 370.085907 546.779419 Z"/>
            <path id="--2" fill="#3d9688" fill-rule="evenodd" stroke="#000000" stroke-width="3" stroke-linecap="round" stroke-linejoin="round" d="M 345.909576 527.608765 C 345.909576 527.608765 348.025452 528.554565 348.753052 531.058289 C 349.480652 533.562012 342.708984 569.639282 342.003387 570.301758 C 341.297791 570.964294 337.641205 575.340393 333.96521 575.498596 C 330.289215 575.656738 329.620911 571.929932 328.943909 569.694458 C 328.266876 567.459106 335.087708 531.75 336.54007 530.61554 C 337.992462 529.481079 340.188995 526.685486 341.011322 525.69104 C 341.833649 524.696533 345.909576 527.608765 345.909576 527.608765 Z"/>
            <path id="path21" fill="#3d9688" fill-rule="evenodd" stroke="#000000" stroke-width="3" stroke-linecap="round" stroke-linejoin="round" d="M 328.663666 604.217346 L 311.029694 636.760254 C 311.029694 636.760254 308.076843 642.408203 302.699554 641.188477 C 297.322266 639.968811 297.984467 635.003052 298.271362 632.858398 C 298.558258 630.713684 314.366425 600.254272 316.405334 599.449402 C 318.444244 598.644531 320.213806 597.229492 323.601471 598.985291 C 326.989166 600.741089 328.663666 604.217346 328.663666 604.217346 Z"/>
        </g>
    </g>
</svg>
