<?xml version="1.0" encoding="UTF-8"?>
<!-- Generated by Pixelmator Pro 4.2 -->
<svg width="3392" height="900" viewBox="0 0 3392 900" xmlns="http://www.w3.org/2000/svg">
    <path id="path1" fill="#4db8a8" stroke="none" d="M 2234.725098 308.053955 L 2331.149902 301.993042 L 2331.701172 245.23999 C 2331.701172 234.219971 2329.49707 224.669373 2325.088867 216.588013 C 2324.354492 215.118652 2323.987061 214.016663 2323.987061 213.281982 C 2323.987061 210.710632 2325.731934 209.424988 2329.22168 209.424988 C 2332.711182 209.424988 2337.394531 210.159668 2343.271973 211.629028 C 2359.43457 215.669678 2367.516113 220.444946 2367.516113 225.955017 L 2366.414063 299.789001 L 2384.045898 298.687012 C 2394.69873 297.584961 2404.341064 296.20752 2412.973633 294.554504 C 2421.605957 292.901489 2427.942383 292.075012 2431.98291 292.075012 C 2436.023682 292.075012 2440.248047 293.728027 2444.656006 297.033997 C 2453.839355 305.115356 2458.431152 311.727295 2458.431152 316.869995 C 2458.431152 320.910645 2454.574219 323.481995 2446.859863 324.583984 L 2365.863037 330.093994 L 2364.209961 408.886993 L 2392.311035 407.785004 C 2429.411865 372.153503 2459.900391 335.971558 2483.776855 299.238037 C 2489.654297 289.687256 2493.144043 279.585693 2494.246094 268.932983 C 2494.613281 265.259644 2496.541992 263.422974 2500.031494 263.422974 C 2503.52124 263.422974 2507.837402 265.535156 2512.97998 269.759521 C 2518.122559 273.983826 2522.622559 278.667297 2526.479492 283.809998 C 2530.336426 288.952698 2532.265137 292.625977 2532.265137 294.829956 C 2532.265137 297.033997 2531.713867 299.054321 2530.612061 300.890991 C 2509.306641 331.379822 2479.736572 366.276123 2441.900879 405.580994 L 2539.979004 400.622009 C 2551.366211 399.887329 2560.825195 398.601685 2568.355469 396.765015 C 2575.885742 394.928314 2581.212158 394.01001 2584.334473 394.01001 C 2587.457031 394.01001 2591.221924 395.479309 2595.629883 398.417999 C 2606.649902 405.764709 2612.160156 413.111298 2612.160156 420.458008 C 2612.160156 424.866028 2608.854004 427.621002 2602.241943 428.722992 L 2410.494141 438.640991 C 2379.270508 467.660492 2347.496582 493.18988 2315.170898 515.22998 L 2314.068848 570.330017 C 2398.188721 546.820557 2449.431152 523.678772 2467.797852 500.903992 C 2472.206055 495.393982 2475.328369 490.986023 2477.165039 487.679993 C 2479.001709 484.373993 2481.481201 482.721008 2484.603516 482.721008 C 2487.72583 482.721008 2491.215332 485.20047 2495.07251 490.159485 C 2498.929688 495.11853 2502.143555 500.628479 2504.714844 506.689514 C 2507.286377 512.750488 2508.572021 517.617676 2508.572021 521.291016 C 2508.572021 524.964355 2506.735352 527.71936 2503.062012 529.55603 C 2458.614502 552.69812 2422.065186 568.585144 2393.413086 577.217529 C 2364.760742 585.849854 2338.129395 592.737305 2313.518066 597.880005 L 2312.416016 628.184998 L 2312.416016 630.940002 C 2312.416016 640.490723 2313.885254 646.919006 2316.823975 650.224976 C 2323.068848 656.469727 2348.414551 659.59198 2392.862061 659.59198 C 2414.9021 659.59198 2446.125 657.755371 2486.531982 654.082031 C 2492.776855 653.347351 2497.368164 651.510681 2500.307129 648.572021 C 2503.245605 645.633301 2507.102539 637.460205 2511.87793 624.05249 C 2516.65332 610.644775 2520.693848 595.216919 2524 577.768494 C 2527.306152 560.320068 2531.163086 551.596008 2535.571045 551.596008 C 2539.979004 551.596008 2542.733887 559.677246 2543.835938 575.839966 L 2544.386963 593.471985 C 2544.386963 609.634766 2542.917725 628.36853 2539.979004 649.674011 C 2538.509766 660.326721 2534.101563 669.601807 2526.754883 677.499512 C 2519.408203 685.397217 2508.20459 690.080688 2493.144043 691.549988 C 2459.716553 694.856018 2429.503662 696.509033 2402.504395 696.509033 C 2375.505371 696.509033 2347.86377 695.315186 2319.579102 692.92749 C 2291.294189 690.539795 2277.151855 673.550842 2277.151855 641.960022 L 2277.151855 638.653992 L 2279.355957 539.473999 C 2251.805908 557.106079 2218.287109 576.02356 2178.79834 596.22699 C 2139.310059 616.43042 2116.811035 626.531982 2111.301025 626.531982 C 2105.791016 626.531982 2103.036133 625.062683 2103.036133 622.124023 C 2103.036133 618.083313 2107.811279 613.12439 2117.362061 607.247009 C 2188.625 563.901428 2242.622559 529.188843 2279.355957 503.108002 C 2278.621338 497.230652 2276.601074 491.720703 2273.294922 486.578003 C 2272.560303 484.373993 2272.192871 483.088348 2272.192871 482.721008 C 2272.192871 480.149658 2274.121582 478.864014 2277.978516 478.864014 C 2281.835449 478.864014 2287.988281 480.149658 2296.437012 482.721008 L 2303.600098 485.476013 C 2312.783203 478.129303 2321.966797 470.874542 2331.149902 463.711487 C 2340.333496 456.548462 2349.333008 449.110046 2358.148926 441.395996 L 2160.891113 451.313995 L 2148.218018 451.86499 C 2138.299805 451.86499 2131.136963 450.028351 2126.729004 446.355011 C 2122.688477 442.314301 2119.19873 437.079865 2116.26001 430.651489 C 2113.321289 424.223145 2111.852051 420.458008 2111.852051 419.355988 C 2111.852051 417.151978 2112.862305 416.049988 2114.882324 416.049988 C 2116.902832 416.049988 2119.565918 416.600983 2122.87207 417.703003 C 2126.177979 418.804993 2133.34082 419.355988 2144.36084 419.355988 L 2153.177002 419.355988 L 2330.599121 410.540009 L 2331.149902 332.297974 L 2251.806152 337.256958 C 2249.234619 337.624329 2246.66333 337.807983 2244.092041 337.807983 L 2236.928955 337.807983 C 2228.112793 337.807983 2221.68457 336.338684 2217.644043 333.400024 C 2213.970703 330.461304 2210.572754 326.420654 2207.450439 321.278015 C 2204.328125 316.135315 2202.76709 312.094727 2202.76709 309.156006 C 2202.76709 306.952026 2204.236328 305.849976 2207.175049 305.849976 L 2209.378906 305.849976 C 2218.195068 307.319336 2226.643555 308.053955 2234.725098 308.053955 Z"/>
    <path id="-" fill="#4db8a8" stroke="none" d="M 2751.011963 527.903015 C 2753.216064 515.780945 2754.317871 500.169434 2754.317871 481.067993 L 2753.76709 337.807983 C 2753.76709 329.359253 2750.644531 320.910706 2744.399902 312.462036 C 2742.930664 310.257996 2742.196045 308.421326 2742.196045 306.952026 C 2742.196045 305.482666 2743.757324 304.747986 2746.879395 304.747986 C 2750.001953 304.747986 2756.338379 306.033691 2765.88916 308.60498 C 2775.439697 311.176392 2781.225098 313.747681 2783.245605 316.31897 C 2785.265869 318.890381 2786.275879 322.196289 2786.275879 326.237 L 2787.928955 542.229004 C 2787.928955 550.310364 2785.174072 554.351013 2779.664063 554.351013 C 2779.296631 554.351013 2776.725342 553.616333 2771.949951 552.146973 C 2767.174805 550.677673 2762.491211 548.198181 2757.899414 544.708496 C 2753.307861 541.218811 2751.011963 536.5354 2751.011963 530.657959 Z M 2776.35791 702.018982 C 2770.113281 708.263672 2765.337891 711.385986 2762.031982 711.385986 C 2760.5625 711.385986 2759.828125 709.824829 2759.828125 706.702515 C 2759.828125 703.580139 2761.480957 699.264038 2764.787109 693.754028 C 2795.643066 650.775757 2816.581055 604.033081 2827.601074 553.524536 C 2838.621094 503.0159 2844.130859 430.56015 2844.130859 336.155029 C 2844.130859 326.971619 2844.130859 317.788391 2844.130859 308.60498 C 2844.130859 299.421631 2843.947266 288.585388 2843.580078 276.096008 C 2843.212646 263.606628 2840.45752 254.79071 2835.314941 249.64801 C 2833.478271 248.17865 2832.560059 246.525696 2832.560059 244.689026 C 2832.560059 242.852295 2834.855957 241.934021 2839.44751 241.934021 C 2844.039063 241.934021 2850.191895 243.219666 2857.906006 245.791016 C 2867.089355 247.994995 2872.875 250.290833 2875.262451 252.678528 C 2877.650146 255.066162 2878.843994 259.014954 2878.843994 264.525024 C 2878.476563 301.258545 2878.384766 333.950867 2878.568359 362.603027 C 2878.752197 391.255157 2877.925781 422.478149 2876.088867 456.27301 C 2874.252441 490.067841 2869.844238 521.658203 2862.86499 551.044983 C 2855.885742 580.431824 2845.600342 607.246887 2832.009033 631.490967 C 2818.41748 655.735107 2799.867432 679.244202 2776.35791 702.018982 Z M 3184.0979 553.249023 L 3184.648926 570.330017 C 3184.648926 580.615356 3181.526611 588.604797 3175.281982 594.298462 C 3169.037354 599.992188 3163.619141 602.838989 3159.027588 602.838989 C 3154.435791 602.838989 3148.191162 600.084045 3140.293457 594.573975 C 3132.395752 589.063965 3124.130859 582.543884 3115.498535 575.013489 C 3106.866211 567.483154 3099.611328 560.228394 3093.733887 553.249023 C 3087.856689 546.269653 3084.917969 541.402527 3084.917969 538.647461 C 3084.917969 535.892456 3086.571045 534.515015 3089.876953 534.515015 C 3093.183105 534.515015 3099.978516 537.453613 3110.263916 543.330994 C 3120.549316 549.208374 3133.773193 555.269287 3149.936035 561.514038 L 3151.589111 396.213989 L 3070.041016 400.071014 L 3068.938965 710.283997 C 3068.938965 717.630737 3066.55127 721.304016 3061.775879 721.304016 C 3053.327393 721.304016 3045.797119 718.549011 3039.185059 713.039001 C 3032.572998 707.528931 3029.26709 702.570007 3029.26709 698.161987 L 3029.26709 695.406982 C 3029.26709 694.304993 3030.093506 690.080688 3031.746582 682.734009 C 3033.399414 675.387329 3034.226074 666.571411 3034.226074 656.286011 L 3035.878906 402.274994 L 2971.412109 405.580994 L 2970.310059 590.71698 C 2970.310059 597.329041 2967.371338 600.63501 2961.493896 600.63501 C 2958.922607 600.63501 2955.249268 599.53302 2950.474121 597.328979 C 2938.352051 591.81897 2932.291016 584.839722 2932.291016 576.390991 C 2932.291016 574.554321 2932.933838 570.881042 2934.219482 565.370972 C 2935.505127 559.860962 2936.147949 552.147034 2936.147949 542.229004 L 2937.25 406.131989 C 2937.25 390.336578 2934.862305 378.214722 2930.086914 369.765991 C 2929.352295 368.664001 2928.985107 367.562012 2928.985107 366.459961 C 2928.985107 363.888672 2931.372559 362.603027 2936.147949 362.603027 C 2940.92334 362.603027 2953.412598 366.827271 2973.615967 375.276001 L 3035.878906 371.969971 L 3036.429932 299.789001 L 2958.187988 304.747986 C 2955.616699 305.115356 2953.412598 305.299011 2951.575928 305.299011 L 2945.514893 305.299011 C 2936.698975 305.299011 2930.454346 303.829712 2926.781006 300.890991 C 2923.107666 297.952332 2919.61792 293.26886 2916.312012 286.840515 C 2913.005859 280.412109 2911.353027 276.463318 2911.353027 274.994019 C 2911.353027 273.524658 2912.271484 272.789978 2914.10791 272.789978 L 2917.964844 272.789978 L 2938.903076 274.994019 L 2945.514893 274.994019 L 3157.649902 262.320984 C 3163.894775 261.586304 3168.85376 260.576172 3172.5271 259.290527 C 3176.200439 258.004822 3179.506348 257.362 3182.445068 257.362 C 3185.383789 257.362 3190.250732 260.116943 3197.046387 265.627014 C 3203.842285 271.137024 3207.23999 275.912292 3207.23999 279.953003 C 3207.23999 283.993713 3205.862549 286.656799 3203.107422 287.942505 C 3200.352539 289.228149 3196.95459 290.054688 3192.914063 290.421997 L 3070.592041 297.584961 L 3070.592041 370.317017 L 3159.302979 365.908997 L 3163.710938 365.908997 C 3171.057617 365.908997 3176.935059 367.745605 3181.343018 371.419006 C 3185.750977 375.092346 3187.955078 378.949341 3187.955078 382.98999 L 3185.750977 394.561005 Z"/>
    <path id="path2" fill="#f2f1ea" stroke="none" d="M 1623.666016 221.546997 C 1648.277466 221.546997 1660.583008 227.791626 1660.583008 240.281006 L 1660.031982 292.075012 L 1690.887939 289.870972 C 1701.908081 289.136353 1709.438232 288.034363 1713.479004 286.565002 C 1717.519775 285.095642 1720.825684 284.361023 1723.396973 284.361023 C 1725.968262 284.361023 1729.458008 285.646667 1733.865967 288.218018 C 1744.151367 295.197388 1749.293945 301.258301 1749.293945 306.401001 C 1749.293945 311.543701 1746.355347 314.4823 1740.478027 315.217041 L 1659.480957 320.176025 L 1658.929932 370.317017 L 1743.783936 364.807007 L 1748.192017 364.807007 C 1754.803955 364.807007 1760.681396 367.194641 1765.823975 371.969971 C 1770.966675 376.745361 1773.538086 380.510498 1773.538086 383.265503 C 1773.538086 386.020508 1772.160522 388.591827 1769.405518 390.979492 C 1766.650513 393.367188 1764.171021 396.581299 1761.967041 400.622009 C 1759.762939 404.662689 1756.089722 410.539948 1750.947021 418.253998 C 1745.804321 425.968048 1740.661621 432.855469 1735.519043 438.916504 C 1730.376221 444.977539 1726.1521 448.007996 1722.845947 448.007996 C 1719.540039 448.007996 1717.886963 446.355011 1717.886963 443.049011 C 1717.886963 439.742981 1719.172607 434.875854 1721.744019 428.44751 C 1724.31543 422.019135 1727.621338 410.723755 1731.661987 394.561005 L 1558.096924 404.479004 C 1552.219727 429.457794 1545.424072 452.599548 1537.709961 473.904999 C 1536.240723 477.578339 1533.393799 479.415009 1529.169434 479.415009 C 1524.945068 479.415009 1520.078003 477.578339 1514.567993 473.904999 C 1509.057983 470.231659 1506.302979 466.833862 1506.302979 463.711487 C 1506.302979 460.589142 1507.956055 455.722046 1511.261963 449.109985 C 1522.281982 425.600555 1530.179688 396.581512 1534.955078 362.052002 C 1535.322266 355.807312 1539.179321 352.684998 1546.526001 352.684998 C 1559.015381 352.684998 1565.26001 356.174622 1565.26001 363.153992 C 1565.26001 365.358032 1565.076416 367.010986 1564.708984 368.113037 L 1563.606934 376.377991 L 1626.971924 371.969971 L 1626.971924 322.380005 L 1585.095947 325.13501 C 1582.891968 325.502319 1580.871704 325.686035 1579.034912 325.686035 C 1577.198242 325.686035 1575.361694 325.686035 1573.525024 325.686035 C 1558.464233 325.686035 1547.995361 316.686401 1542.11792 298.687012 C 1541.750732 297.952332 1541.567017 296.942139 1541.567017 295.656494 C 1541.567017 294.37085 1542.485352 293.728027 1544.322021 293.728027 C 1554.607422 296.299316 1563.606934 297.584961 1571.321045 297.584961 L 1575.177979 297.584961 L 1626.971924 294.278992 L 1626.971924 252.953979 C 1626.971924 243.403259 1625.594482 236.791382 1622.839478 233.117981 C 1620.084473 229.444641 1618.707031 226.597839 1618.707031 224.577515 C 1618.707031 222.557129 1620.359985 221.546997 1623.666016 221.546997 Z M 1980.162964 382.98999 L 1977.407959 397.31601 C 1974.101929 502.74118 1966.204346 587.410645 1953.714966 651.327026 C 1949.674316 675.203796 1943.7052 690.539795 1935.807495 697.33551 C 1927.90979 704.131226 1921.297852 707.528992 1915.971558 707.528992 C 1910.645142 707.528992 1902.563843 704.223022 1891.727539 697.610962 C 1880.891113 690.998962 1867.208008 679.703613 1850.677979 663.724487 C 1834.147949 647.745422 1825.883057 638.011169 1825.883057 634.521484 C 1825.883057 631.031799 1827.444092 629.286987 1830.566528 629.286987 C 1833.688843 629.286987 1837.637695 630.572632 1842.413086 633.143982 C 1878.411865 653.714783 1900.81897 664 1909.63501 664 C 1911.838989 664 1913.124634 662.714355 1913.491943 660.143005 C 1925.246704 615.328125 1933.695313 558.942993 1938.838013 490.985992 C 1941.409302 459.395172 1942.694946 428.355804 1942.694946 397.867004 L 1883.187012 401.723999 C 1868.86084 514.495911 1835.250244 599.900024 1782.354004 657.938965 C 1767.660645 674.101746 1755.07959 686.223633 1744.610474 694.304993 C 1734.141357 702.386353 1727.070313 706.427002 1723.396973 706.427002 C 1719.723633 706.427002 1717.886963 705.141357 1717.886963 702.570007 C 1717.886963 698.529297 1721.009277 693.386719 1727.254028 687.141968 C 1774.640259 639.021118 1808.250977 579.146362 1828.086914 507.515991 C 1837.270386 474.455841 1844.43335 439.926849 1849.575928 403.928009 L 1832.494995 405.029999 C 1825.148315 405.764679 1818.260864 406.131989 1811.83252 406.131989 C 1805.404053 406.131989 1800.353271 404.846344 1796.679932 402.274994 C 1792.639404 398.234314 1789.057861 392.999878 1785.935547 386.571533 C 1782.813232 380.143127 1781.251953 375.827026 1781.251953 373.622986 C 1781.251953 371.418945 1782.17041 370.317017 1784.00708 370.317017 C 1785.84375 370.317017 1788.874146 370.776123 1793.098511 371.694458 C 1797.322876 372.612793 1803.659302 373.072021 1812.10791 373.072021 L 1818.168945 373.072021 L 1853.432983 370.868042 C 1857.106323 331.195801 1858.942993 301.993103 1858.942993 283.258972 C 1858.942993 264.524902 1858.66748 252.954041 1858.116455 248.546021 C 1857.56543 244.138 1856.279785 239.821838 1854.259521 235.597473 C 1852.239136 231.373169 1851.229004 228.342651 1851.229004 226.505981 C 1851.229004 224.669312 1852.973877 223.750977 1856.463501 223.750977 C 1859.953125 223.750977 1866.105957 225.036682 1874.921997 227.607971 C 1888.880737 232.016052 1895.859985 239.178955 1895.859985 249.096985 L 1895.859985 250.198975 C 1894.023315 294.279175 1891.268311 333.767151 1887.594971 368.664001 L 1953.16394 364.807007 L 1957.020996 364.807007 C 1962.163696 364.807007 1967.306274 366.459961 1972.448975 369.765991 C 1977.591675 373.072021 1980.162964 377.47998 1980.162964 382.98999 Z M 1561.953979 441.395996 L 1590.054932 445.252991 L 1688.684082 436.988007 L 1692.541016 436.988007 C 1697.683716 436.988007 1702.918213 439.467468 1708.244507 444.426514 C 1713.570801 449.385529 1716.234009 453.609802 1716.234009 457.099487 C 1716.234009 460.589172 1714.672852 463.252319 1711.550537 465.088989 C 1708.428223 466.92569 1701.907959 473.44577 1691.98999 484.649506 C 1682.072021 495.85321 1667.929688 509.3526 1649.562988 525.14801 L 1658.379028 547.187988 C 1689.969849 540.575928 1714.580933 534.882324 1732.213013 530.106995 C 1749.845093 525.331665 1759.211914 522.94397 1760.313965 522.94397 L 1764.171021 522.94397 C 1770.415771 522.94397 1773.538086 524.78064 1773.538086 528.453979 C 1773.538086 530.290649 1772.803345 531.943665 1771.333984 533.412964 C 1769.864746 534.882324 1765.640381 536.994507 1758.661011 539.749512 C 1751.681641 542.504517 1720.458618 552.697876 1664.990967 570.330017 C 1669.031738 589.798767 1671.052002 611.379395 1671.052002 635.07251 C 1671.052002 658.765625 1668.113281 677.223938 1662.236084 690.447998 C 1656.358643 703.672058 1649.103882 710.283997 1640.471436 710.283997 C 1631.839111 710.283997 1616.411255 701.376221 1594.1875 683.560486 C 1571.963745 665.744751 1560.852051 653.898376 1560.852051 648.020996 C 1560.852051 646.184326 1562.321289 645.265991 1565.26001 645.265991 C 1568.19873 645.265991 1577.657471 649.214783 1593.636475 657.112488 C 1609.615601 665.010193 1622.380371 670.060974 1631.93103 672.265015 C 1637.07373 672.265015 1639.64502 656.102478 1639.64502 623.776978 C 1639.64502 608.716248 1638.175659 593.839417 1635.237061 579.145996 C 1573.524658 596.043396 1539.363037 604.492004 1532.750977 604.492004 C 1526.138916 604.492004 1520.904541 602.012512 1517.047485 597.053467 C 1513.19043 592.094482 1510.160034 587.043701 1507.956055 581.901001 C 1505.751953 576.758301 1504.650024 573.635986 1504.650024 572.533997 C 1504.650024 569.595337 1506.486572 568.125977 1510.159912 568.125977 L 1512.915039 568.125977 C 1518.057617 569.228027 1524.945068 569.778992 1533.577515 569.778992 C 1542.209961 569.778992 1573.89209 564.452698 1628.625 553.799988 C 1624.95166 542.045288 1620.819214 532.49469 1616.227539 525.14801 C 1611.635742 517.80127 1609.340088 512.383179 1609.340088 508.893494 C 1609.340088 505.403809 1612.003174 502.557007 1617.32959 500.352997 C 1622.655884 498.148987 1626.420898 497.046997 1628.625 497.046997 C 1630.829102 497.046997 1633.400391 499.067322 1636.338989 503.108002 C 1651.032471 490.251282 1663.337891 477.762054 1673.255981 465.640015 L 1603.279053 471.700989 C 1601.074951 472.068329 1599.054688 472.252014 1597.218018 472.252014 L 1587.300049 472.252014 C 1582.157227 472.252014 1577.014648 469.956177 1571.87207 465.364502 C 1566.729248 460.772797 1563.147827 456.456696 1561.127441 452.415985 C 1559.107178 448.375305 1558.096924 445.528503 1558.096924 443.875488 C 1558.096924 442.222504 1559.382568 441.395996 1561.953979 441.395996 Z"/>
    <path id="path3" fill="#f2f1ea" stroke="none" d="M 961.914978 292.075012 C 972.935059 294.279053 982.669312 295.380981 991.117981 295.380981 L 996.077026 295.380981 L 1127.214966 287.666992 L 1127.214966 247.994995 C 1127.214966 239.178955 1125.470215 231.924194 1121.980469 226.23053 C 1118.490845 220.536804 1116.745972 217.138977 1116.745972 216.036987 C 1116.745972 213.833008 1118.582642 212.731018 1122.255981 212.731018 C 1125.929321 212.731018 1132.17395 214.200317 1140.98999 217.138977 C 1149.80603 220.077698 1155.224121 222.740845 1157.244507 225.128479 C 1159.264893 227.516174 1160.275024 230.914001 1160.275024 235.322021 L 1160.275024 285.463013 L 1269.373047 278.851013 C 1276.352295 278.483643 1282.596924 277.197998 1288.106934 274.994019 C 1293.617065 272.789978 1297.657715 271.687988 1300.229004 271.687988 C 1302.800293 271.687988 1306.290039 273.249146 1310.697998 276.371521 C 1315.105957 279.493835 1318.963013 283.075317 1322.269043 287.116028 C 1325.574951 291.156677 1327.228027 294.462646 1327.228027 297.033997 C 1327.228027 301.074707 1323.003662 303.645996 1314.554932 304.747986 L 1179.560059 313.013 C 1249.353638 357.827881 1320.432007 392.540558 1392.796997 417.152008 C 1398.674316 419.356018 1401.613037 421.743652 1401.613037 424.315002 C 1401.613037 425.049683 1400.327393 427.437317 1397.755981 431.477997 C 1391.51123 442.498047 1384.164795 448.007996 1375.716064 448.007996 C 1373.879395 448.007996 1366.257202 445.253021 1352.849487 439.743011 C 1339.441772 434.232971 1322.452759 426.335388 1301.881958 416.049988 C 1251.557129 391.071198 1204.171631 362.052124 1159.723999 328.992004 L 1159.723999 419.907013 C 1159.723999 430.192383 1156.234375 435.334991 1149.255005 435.334991 C 1146.683594 435.334991 1143.194092 434.233002 1138.786011 432.028992 C 1127.765869 426.518982 1122.255981 420.090698 1122.255981 412.743988 C 1122.255981 410.539978 1122.990723 405.948364 1124.459961 398.968994 C 1125.929321 391.989624 1126.664063 382.990051 1126.664063 371.969971 L 1126.664063 330.64502 C 1082.216431 376.929199 1027.667969 414.396851 963.016968 443.049011 C 931.426147 457.007751 913.243347 463.987 908.468018 463.987 C 903.692627 463.987 901.304993 462.701355 901.304993 460.130005 C 901.304993 456.456635 905.345642 452.416016 913.427002 448.007996 C 986.526672 409.437805 1048.238037 366.092896 1098.562988 317.971985 L 1010.403015 323.481995 C 1006.362305 323.849365 1002.872681 324.032959 999.934021 324.032959 L 991.669006 324.032959 C 977.342896 324.032959 967.792358 317.604736 963.016968 304.747986 C 960.812988 298.503296 959.710999 294.830017 959.710999 293.728027 C 959.710999 292.625977 960.445679 292.075012 961.914978 292.075012 Z M 1017.565979 442.497986 C 1028.58606 444.701996 1037.401978 445.803986 1044.014038 445.803986 L 1048.973022 445.803986 L 1230.251953 434.233002 L 1235.761963 434.233002 C 1244.945313 434.233002 1252.659302 437.171631 1258.904053 443.049011 C 1265.148682 448.926361 1268.270996 453.517975 1268.270996 456.824005 C 1268.270996 460.130005 1266.526123 462.701324 1263.036499 464.537994 C 1259.546875 466.374664 1253.210449 471.149963 1244.026978 478.864014 C 1224.190918 496.128754 1195.906494 513.944214 1159.172974 532.311035 L 1164.131958 542.780029 L 1316.759033 536.167969 C 1331.452393 535.06604 1341.462158 533.59668 1346.788574 531.76001 C 1352.114868 529.92334 1355.880005 529.005005 1358.083984 529.005005 C 1360.288086 529.005005 1363.777588 530.657959 1368.552979 533.963989 C 1381.409668 542.04541 1387.838013 549.391968 1387.838013 556.004028 C 1387.838013 560.044678 1382.695313 562.432312 1372.410034 563.166992 L 1173.499023 571.983032 C 1179.009033 592.553772 1181.764038 610.552917 1181.764038 625.981018 C 1181.764038 682.917969 1171.295166 711.385986 1150.356934 711.385986 C 1138.969604 711.385986 1124.643799 706.610718 1107.379028 697.059998 C 1090.114258 687.509277 1076.706665 679.42804 1067.156006 672.815979 C 1045.850586 658.122559 1035.197998 648.388367 1035.197998 643.613037 C 1035.197998 641.408997 1036.759155 640.307007 1039.88147 640.307007 C 1043.003906 640.307007 1053.840088 644.439453 1072.390503 652.704468 C 1090.940918 660.969543 1112.521484 667.122314 1137.133057 671.162964 L 1138.786011 671.162964 C 1143.928711 671.162964 1146.5 658.857422 1146.5 634.245972 C 1146.5 609.634521 1144.296021 589.431396 1139.887939 573.635986 L 955.854004 581.901001 L 942.630005 582.452026 C 927.201904 582.452026 915.998352 572.901428 909.018982 553.799988 C 908.651672 553.065308 908.468018 552.055176 908.468018 550.769531 C 908.468018 549.483826 909.202637 548.841003 910.671997 548.841003 C 912.141357 548.841003 914.988159 549.483826 919.212524 550.769531 C 923.436829 552.055176 929.95697 552.697998 938.77301 552.697998 L 944.28302 552.697998 L 1129.418945 544.432983 C 1127.949707 541.494324 1126.480347 538.555664 1125.010986 535.617004 C 1123.541626 532.678345 1121.429565 528.913208 1118.674561 524.321533 C 1115.919434 519.729797 1114.541992 515.689209 1114.541992 512.199463 C 1114.541992 508.709808 1117.480591 505.587524 1123.358032 502.832489 C 1129.235352 500.077484 1133.092285 498.700012 1134.928955 498.700012 C 1138.602295 498.700012 1142.82666 502.556976 1147.602051 510.270996 C 1176.62146 494.475586 1199.028564 479.047729 1214.823975 463.987 L 1063.29895 473.904999 C 1060.727661 474.272339 1058.156372 474.455994 1055.584961 474.455994 L 1048.421997 474.455994 C 1039.973267 474.455994 1034.096069 473.170349 1030.790039 470.598999 C 1027.851318 467.660309 1024.54541 463.344208 1020.872009 457.650513 C 1017.198669 451.956818 1015.362 448.008026 1015.362 445.803986 C 1015.362 443.599976 1016.09668 442.497986 1017.565979 442.497986 Z"/>
    <g id="g1">
        <path id="path4" fill="#4db8a8" fill-rule="evenodd" stroke="#000000" stroke-width="3" stroke-linecap="round" stroke-linejoin="round" d="M 453 479 L 453 511 C 453 511 553.760925 514.448181 557 513 C 560.239075 511.551819 556.409607 508.046082 557 507 C 557.590393 505.953918 565 507 565 507 C 565 507 564.947266 500.554474 565 499 C 565.052734 497.445526 578.948425 494.902618 578 493 C 577.051575 491.097382 571 484 571 484 L 583 478 L 576 470 L 539 476 L 453 479 Z"/>
        <path id="path5" fill="#4db8a8" fill-rule="evenodd" stroke="#000000" stroke-width="3" stroke-linecap="round" stroke-linejoin="round" d="M 444 449 L 511 449 L 585 444 L 582 437 L 588 431 L 582 425 L 587 416 L 581 408 L 506 415 L 446 415 L 444 449 Z"/>
        <g id="g2">
            <path id="path6" fill="#3d9688" fill-rule="evenodd" stroke="#000000" stroke-width="3" stroke-linecap="round" stroke-linejoin="round" d="M 480 104 L 473 84 L 467 82 L 458 91 L 455 111 L 477 124 L 480 104 Z"/>
            <path id="path7" fill="#3d9688" fill-rule="evenodd" stroke="#000000" stroke-width="3" stroke-linecap="round" stroke-linejoin="round" d="M 358 121 L 344 71 L 338 57 L 320 48 L 303 54 L 296 71 L 297 92 L 319 134 L 358 121 Z"/>
            <path id="path8" fill="#3d9688" fill-rule="evenodd" stroke="#000000" stroke-width="3" stroke-linecap="round" stroke-linejoin="round" d="M 239 225 L 195 216 L 167 216 L 145 224 L 141 238 L 148 260 L 172 269 L 205 277 L 229 279 L 239 225 Z"/>
            <path id="path9" fill="#3d9688" fill-rule="evenodd" stroke="#000000" stroke-width="3" stroke-linecap="round" stroke-linejoin="round" d="M 232 428 L 197 430 L 176 436 L 168 449 L 176 463 L 202 473 L 229 474 L 232 428 Z"/>
            <path id="path10" fill="#3d9688" fill-rule="evenodd" stroke="#000000" stroke-width="3" stroke-linecap="round" stroke-linejoin="round" d="M 205 590 L 175 586 L 165 591 L 169 604 L 190 623 L 205 590 Z"/>
        </g>
        <g id="g3">
            <path id="path11" fill="#4db8a8" fill-rule="evenodd" stroke="#000000" stroke-width="3" stroke-linecap="round" stroke-linejoin="round" d="M 428 118 L 426 73 L 418 56 L 408 50 L 391 57 L 385 68 L 389 120 L 428 118 Z"/>
            <path id="path12" fill="#4db8a8" fill-rule="evenodd" stroke="#000000" stroke-width="3" stroke-linecap="round" stroke-linejoin="round" d="M 291 145 L 257 117 L 241 107 L 220 100 L 202 105 L 197 115 L 203 139 L 228 170 L 257 187 L 291 145 Z"/>
            <path id="path13" fill="#4db8a8" fill-rule="evenodd" stroke="#000000" stroke-width="3" stroke-linecap="round" stroke-linejoin="round" d="M 234 337 L 192 333 L 172 336 L 159 345 L 159 354 L 179 372 L 205 380 L 235 382 L 234 337 Z"/>
            <path id="path14" fill="#4db8a8" fill-rule="evenodd" stroke="#000000" stroke-width="3" stroke-linecap="round" stroke-linejoin="round" d="M 221 524 L 188 522 L 175 527 L 182 540 L 200 549 L 216 555 L 221 524 Z"/>
            <path id="path15" fill="#4db8a8" fill-rule="evenodd" stroke="#000000" stroke-width="3" stroke-linecap="round" stroke-linejoin="round" d="M 164 649 L 143 632 L 131 632 L 126 642 L 133 666 L 164 649 Z"/>
        </g>
        <path id="path16" fill="#4db8a8" fill-rule="evenodd" stroke="#000000" stroke-width="3" stroke-linecap="round" stroke-linejoin="round" d="M 409 833 C 419.326508 844.1427 474.880066 847.477844 490 846 C 499.038544 845.116577 536.073181 838.08136 536 829 C 535.941467 821.737793 505.74173 818.387085 495 809 C 483.627014 799.061279 483.743073 599.528931 481 544 C 478.94046 502.308105 477.134888 369.019653 483 324 C 483.88031 317.24292 503.974304 302.181885 510 299 C 515.879333 295.895447 540.804993 296.158142 545 291 C 562.997253 268.870544 562.512451 161.556091 548 137 C 541.720459 126.374573 501.06546 108.599365 489 106 C 455.449982 98.772034 335.793365 104.076111 304 117 C 290.621033 122.438477 252.929749 155.929688 245 168 C 237.539139 179.356567 225.023972 224.563477 223 238 C 217.979691 271.328247 226.194458 386.36731 224 420 C 222.040741 450.028015 211.088547 552.313416 202 581 C 198.472809 592.133057 181.382095 628.868164 173 637 C 165.628296 644.151611 133.014648 658.720947 123 661 C 108.735092 664.246277 49.131756 647.299927 44 661 C 37.968609 677.101746 99.535347 712.703857 114 722 C 126.828506 730.244629 174.134964 752.597717 189 756 C 196.403412 757.694458 224.446411 751.819336 230 757 C 241.560989 767.784668 226.440079 831.214172 238 842 C 254.52388 857.417358 339.476288 854.460999 360 845 C 363.467041 843.401733 373.571411 832.774658 373 829 C 372.500305 825.699158 361.162415 820.069824 358 819 C 352.55072 817.156494 331.067749 821.067749 327 817 C 318.864471 808.864502 315.454437 763.685486 323 755 C 332.622192 743.924194 390.834625 739.481873 402 749 C 413.878998 759.126465 398.389709 821.551086 409 833 Z"/>
        <path id="path17" fill="none" stroke="#000000" stroke-width="3" stroke-linecap="round" stroke-linejoin="round" d="M 449 240 C 449 240 461.862457 248.66571 470 250 C 487.794525 252.917664 556 254 556 254"/>
        <path id="path18" fill="#000000" fill-rule="evenodd" stroke="#000000" stroke-width="3" stroke-linecap="round" stroke-linejoin="round" d="M 413.989044 178.950684 C 410.439178 179.024109 405.032227 181.05072 404.999817 187.083801 C 404.967407 193.116882 410.644623 195.971252 412.704865 196.072998 C 414.765106 196.174805 419.539581 195.89325 420.837982 193.504639 C 422.136383 191.116089 422.700714 188.023804 422.978271 186.227661 C 423.255829 184.431519 420.806122 180.80011 419.553802 179.806824 C 418.301483 178.813477 417.53891 178.877258 413.989044 178.950684 Z"/>
        <g id="g4">
            <path id="path19" fill="#3d9688" fill-rule="evenodd" stroke="#000000" stroke-width="3" stroke-linecap="round" stroke-linejoin="round" d="M 277 352.013733 C 274.20517 352.265869 272.490723 354.453918 272 355.626038 C 271.509277 356.798218 271.454803 394.68399 272 397.770294 C 272.545197 400.856567 276.440002 405.166534 278 404.994995 C 279.559998 404.823456 285.017334 402.417419 285 400.178528 C 284.982666 397.939606 285.668274 360.330994 285 359.238403 C 284.331726 358.145874 284.784027 354.353394 283 353.217834 C 281.215973 352.082275 279.79483 351.761536 277 352.013733 Z"/>
            <path id="path20" fill="#3d9688" fill-rule="evenodd" stroke="#000000" stroke-width="3" stroke-linecap="round" stroke-linejoin="round" d="M 245.874008 460.93045 L 243.072998 487.580322 C 243.072998 487.580322 243.780701 493.23938 249.201721 493.939911 C 254.622742 494.640472 254.587402 490.817017 255.856644 488.107452 C 257.125885 485.397888 259.761078 450.959167 259.761078 450.959167 C 259.761078 450.959167 259.124878 448.632782 257.112671 447.414825 C 255.100433 446.196869 251.989136 446.57312 250.135147 449.130951 C 248.281158 451.688751 249.10994 450.412537 247.384903 453.740845 C 245.659882 457.069153 245.874008 460.93045 245.874008 460.93045 Z"/>
            <path id="path21" fill="#3d9688" fill-rule="evenodd" stroke="#000000" stroke-width="3" stroke-linecap="round" stroke-linejoin="round" d="M 273.175415 451.166718 C 273.175415 451.166718 268.184601 479.50473 269.100464 483.561127 C 270.016327 487.617554 273.209381 490.606476 275.028992 490.917114 C 276.848572 491.227753 280.67807 487.260895 280.944153 485.647583 C 281.210266 484.034241 284.635193 455.044739 284.356262 453.183502 C 284.077362 451.322266 284.064209 445.871796 281.829468 445.343445 C 279.594727 444.815094 275.876587 444.158569 274.36319 446.241913 C 272.849823 448.325256 273.175415 451.166718 273.175415 451.166718 Z"/>
            <path id="path22" fill="#3d9688" fill-rule="evenodd" stroke="#000000" stroke-width="3" stroke-linecap="round" stroke-linejoin="round" d="M 250 353 C 250 353 247.382202 353.553589 246 356 C 244.617798 358.446411 244.343414 397.171875 245 398 C 245.656586 398.828125 248.850616 404.096191 253 405 C 257.149384 405.903809 258.734741 402.178772 260 400 C 261.265259 397.821228 261.402222 359.467224 260 358 C 258.597778 356.532776 256.716003 353.195435 256 352 C 255.283997 350.804565 250 353 250 353 Z"/>
            <path id="--4" fill="#3d9688" fill-rule="evenodd" stroke="#000000" stroke-width="3" stroke-linecap="round" stroke-linejoin="round" d="M 238.418152 618.91748 C 238.418152 618.91748 236.612946 617.839722 234.600128 618.44751 C 232.587311 619.055359 213.376556 640.067993 213.353653 640.866577 C 213.33075 641.665161 212.609543 646.227356 214.59465 648.908875 C 216.579758 651.590393 219.34053 650.391113 221.153198 649.867859 C 222.965881 649.344604 241.913452 628.462524 241.814133 626.921631 C 241.714813 625.380676 242.254639 622.565186 242.423447 621.534546 C 242.592255 620.503967 238.418152 618.91748 238.418152 618.91748 Z"/>
            <path id="path23" fill="#3d9688" fill-rule="evenodd" stroke="#000000" stroke-width="3" stroke-linecap="round" stroke-linejoin="round" d="M 263.507904 203.102051 L 259.991272 231.823669 C 259.991272 231.823669 259.291809 236.758362 264.427277 238.488403 C 269.562775 240.218384 271.780396 236.778625 272.737457 235.292542 C 273.694489 233.806519 277.563416 207.24762 276.322205 205.792297 C 275.081024 204.336975 274.402924 202.622009 270.617523 202.154907 C 266.832123 201.687744 263.507904 203.102051 263.507904 203.102051 Z"/>
            <path id="--5" fill="#3d9688" fill-rule="evenodd" stroke="#000000" stroke-width="3" stroke-linecap="round" stroke-linejoin="round" d="M 171.013245 658.158447 L 145.334717 670.679443 C 145.334717 670.679443 140.871048 672.750732 142.231461 677.99231 C 143.591873 683.233887 147.64389 683.241943 149.393875 683.244507 C 151.143845 683.247192 175.224274 672.18689 175.753723 670.361328 C 176.283173 668.535767 177.333618 667.042908 175.662201 663.614563 C 173.990768 660.186279 171.013245 658.158447 171.013245 658.158447 Z"/>
            <path id="--6" fill="#3d9688" fill-rule="evenodd" stroke="#000000" stroke-width="3" stroke-linecap="round" stroke-linejoin="round" d="M 256.241364 280.395508 L 257.235413 308.946716 C 257.235413 308.946716 257.312103 313.866943 262.65387 314.756104 C 267.995636 315.645264 269.651062 311.946838 270.365234 310.349182 C 271.079407 308.751587 270.769745 282.254395 269.317352 281.028198 C 267.86496 279.802002 266.928406 278.235168 263.116669 278.367676 C 259.304901 278.500183 256.241364 280.395508 256.241364 280.395508 Z"/>
            <path id="--3" fill="#3d9688" fill-rule="evenodd" stroke="#000000" stroke-width="3" stroke-linecap="round" stroke-linejoin="round" d="M 272.085907 546.779419 L 264.699768 572.537964 C 264.699768 572.537964 261.923676 577.519897 256.634949 576.138672 C 251.346237 574.757446 252.811295 571.225647 252.649506 568.237915 C 252.487701 565.250122 262.945343 532.33197 262.945343 532.33197 C 262.945343 532.33197 264.406708 530.41333 266.728668 530.037842 C 269.050629 529.662354 271.794434 531.176758 272.555237 534.242798 C 273.316071 537.308899 273.025696 535.815186 273.378326 539.547302 C 273.730927 543.279419 272.085907 546.779419 272.085907 546.779419 Z"/>
            <path id="--2" fill="#3d9688" fill-rule="evenodd" stroke="#000000" stroke-width="3" stroke-linecap="round" stroke-linejoin="round" d="M 247.909561 527.608765 C 247.909561 527.608765 250.025452 528.554565 250.753052 531.058289 C 251.480652 533.562012 244.708984 569.639282 244.003387 570.301758 C 243.297806 570.964294 239.641205 575.340393 235.96521 575.498596 C 232.28923 575.656738 231.620911 571.929932 230.943893 569.694458 C 230.266891 567.459106 237.087708 531.75 238.540085 530.61554 C 239.992447 529.481079 242.188995 526.685486 243.011322 525.69104 C 243.833633 524.696533 247.909561 527.608765 247.909561 527.608765 Z"/>
            <path id="path24" fill="#3d9688" fill-rule="evenodd" stroke="#000000" stroke-width="3" stroke-linecap="round" stroke-linejoin="round" d="M 230.663651 604.217346 L 213.029678 636.760254 C 213.029678 636.760254 210.076843 642.408203 204.699554 641.188477 C 199.322266 639.968811 199.984451 635.003052 200.271347 632.858398 C 200.558243 630.713684 216.366409 600.254272 218.405319 599.449402 C 220.444229 598.644531 222.213806 597.229492 225.601471 598.985291 C 228.989151 600.741089 230.663651 604.217346 230.663651 604.217346 Z"/>
        </g>
    </g>
</svg>
