<?xml version="1.0" encoding="UTF-8"?>
<!-- Generated by Pixelmator Pro 4.0 -->
<svg width="3392" height="900" viewBox="0 0 3392 900" xmlns="http://www.w3.org/2000/svg">
    <text id="text1" xml:space="preserve"><tspan x="870" y="664" font-family="LXGW WenKai" font-size="551" fill="#000000" letter-spacing="55.1" xml:space="preserve">李勃</tspan><tspan font-family="LXGW WenKai" font-size="551" fill="#007c77" letter-spacing="55.1" xml:space="preserve">老师</tspan></text>
    <g id="g1">
        <path id="path1" fill="#3d9688" fill-rule="evenodd" stroke="#000000" stroke-width="3" stroke-linecap="round" stroke-linejoin="round" d="M 453 479 L 453 511 C 453 511 553.760925 514.448181 557 513 C 560.239075 511.551819 556.409607 508.046082 557 507 C 557.590393 505.953918 565 507 565 507 C 565 507 564.947266 500.554474 565 499 C 565.052734 497.445526 578.948425 494.902618 578 493 C 577.051575 491.097382 571 484 571 484 L 583 478 L 576 470 L 539 476 L 453 479 Z"/>
        <path id="path2" fill="#3d9688" fill-rule="evenodd" stroke="#000000" stroke-width="3" stroke-linecap="round" stroke-linejoin="round" d="M 444 449 L 511 449 L 585 444 L 582 437 L 588 431 L 582 425 L 587 416 L 581 408 L 506 415 L 446 415 L 444 449 Z"/>
        <g id="g2">
            <path id="path3" fill="#2e7a6e" fill-rule="evenodd" stroke="#000000" stroke-width="3" stroke-linecap="round" stroke-linejoin="round" d="M 480 104 L 473 84 L 467 82 L 458 91 L 455 111 L 477 124 L 480 104 Z"/>
            <path id="path4" fill="#2e7a6e" fill-rule="evenodd" stroke="#000000" stroke-width="3" stroke-linecap="round" stroke-linejoin="round" d="M 358 121 L 344 71 L 338 57 L 320 48 L 303 54 L 296 71 L 297 92 L 319 134 L 358 121 Z"/>
            <path id="path5" fill="#2e7a6e" fill-rule="evenodd" stroke="#000000" stroke-width="3" stroke-linecap="round" stroke-linejoin="round" d="M 239 225 L 195 216 L 167 216 L 145 224 L 141 238 L 148 260 L 172 269 L 205 277 L 229 279 L 239 225 Z"/>
            <path id="path6" fill="#2e7a6e" fill-rule="evenodd" stroke="#000000" stroke-width="3" stroke-linecap="round" stroke-linejoin="round" d="M 232 428 L 197 430 L 176 436 L 168 449 L 176 463 L 202 473 L 229 474 L 232 428 Z"/>
            <path id="path7" fill="#2e7a6e" fill-rule="evenodd" stroke="#000000" stroke-width="3" stroke-linecap="round" stroke-linejoin="round" d="M 205 590 L 175 586 L 165 591 L 169 604 L 190 623 L 205 590 Z"/>
        </g>
        <g id="g3">
            <path id="path8" fill="#4db8a8" fill-rule="evenodd" stroke="#000000" stroke-width="3" stroke-linecap="round" stroke-linejoin="round" d="M 428 118 L 426 73 L 418 56 L 408 50 L 391 57 L 385 68 L 389 120 L 428 118 Z"/>
            <path id="path9" fill="#4db8a8" fill-rule="evenodd" stroke="#000000" stroke-width="3" stroke-linecap="round" stroke-linejoin="round" d="M 291 145 L 257 117 L 241 107 L 220 100 L 202 105 L 197 115 L 203 139 L 228 170 L 257 187 L 291 145 Z"/>
            <path id="path10" fill="#4db8a8" fill-rule="evenodd" stroke="#000000" stroke-width="3" stroke-linecap="round" stroke-linejoin="round" d="M 234 337 L 192 333 L 172 336 L 159 345 L 159 354 L 179 372 L 205 380 L 235 382 L 234 337 Z"/>
            <path id="path11" fill="#4db8a8" fill-rule="evenodd" stroke="#000000" stroke-width="3" stroke-linecap="round" stroke-linejoin="round" d="M 221 524 L 188 522 L 175 527 L 182 540 L 200 549 L 216 555 L 221 524 Z"/>
            <path id="path12" fill="#4db8a8" fill-rule="evenodd" stroke="#000000" stroke-width="3" stroke-linecap="round" stroke-linejoin="round" d="M 164 649 L 143 632 L 131 632 L 126 642 L 133 666 L 164 649 Z"/>
        </g>
        <path id="path13" fill="#3d9688" fill-rule="evenodd" stroke="#000000" stroke-width="3" stroke-linecap="round" stroke-linejoin="round" d="M 409 833 C 419.326508 844.1427 474.880066 847.477844 490 846 C 499.038544 845.116577 536.073181 838.08136 536 829 C 535.941467 821.737793 505.74173 818.387085 495 809 C 483.627014 799.061279 483.743073 599.528931 481 544 C 478.94046 502.308105 477.134888 369.019653 483 324 C 483.88031 317.24292 503.974304 302.181885 510 299 C 515.879333 295.895447 540.804993 296.158142 545 291 C 562.997253 268.870544 562.512451 161.556091 548 137 C 541.720459 126.374573 501.06546 108.599365 489 106 C 455.449982 98.772034 335.793365 104.076111 304 117 C 290.621033 122.438477 252.929749 155.929688 245 168 C 237.539139 179.356567 225.023972 224.563477 223 238 C 217.979691 271.328247 226.194458 386.36731 224 420 C 222.040741 450.028015 211.088547 552.313416 202 581 C 198.472809 592.133057 181.382095 628.868164 173 637 C 165.628296 644.151611 133.014648 658.720947 123 661 C 108.735092 664.246277 49.131756 647.299927 44 661 C 37.968609 677.101746 99.535347 712.703857 114 722 C 126.828506 730.244629 174.134964 752.597717 189 756 C 196.403412 757.694458 224.446411 751.819336 230 757 C 241.560989 767.784668 226.440079 831.214172 238 842 C 254.52388 857.417358 339.476288 854.460999 360 845 C 363.467041 843.401733 373.571411 832.774658 373 829 C 372.500305 825.699158 361.162415 820.069824 358 819 C 352.55072 817.156494 331.067749 821.067749 327 817 C 318.864471 808.864502 315.454437 763.685486 323 755 C 332.622192 743.924194 390.834625 739.481873 402 749 C 413.878998 759.126465 398.389709 821.551086 409 833 Z"/>
        <path id="path14" fill="none" stroke="#000000" stroke-width="3" stroke-linecap="round" stroke-linejoin="round" d="M 449 240 C 449 240 461.862457 248.66571 470 250 C 487.794525 252.917664 556 254 556 254"/>
        <path id="path15" fill="#000000" fill-rule="evenodd" stroke="#000000" stroke-width="3" stroke-linecap="round" stroke-linejoin="round" d="M 413.989044 178.950684 C 410.439178 179.024109 405.032227 181.05072 404.999817 187.083801 C 404.967407 193.116882 410.644623 195.971252 412.704865 196.072998 C 414.765106 196.174805 419.539581 195.89325 420.837982 193.504639 C 422.136383 191.116089 422.700714 188.023804 422.978271 186.227661 C 423.255829 184.431519 420.806122 180.80011 419.553802 179.806824 C 418.301483 178.813477 417.53891 178.877258 413.989044 178.950684 Z"/>
        <g id="g4">
            <path id="path16" fill="#2e7a6e" fill-rule="evenodd" stroke="#000000" stroke-width="3" stroke-linecap="round" stroke-linejoin="round" d="M 277 352.013733 C 274.20517 352.265869 272.490723 354.453918 272 355.626038 C 271.509277 356.798218 271.454803 394.68399 272 397.770294 C 272.545197 400.856567 276.440002 405.166534 278 404.994995 C 279.559998 404.823456 285.017334 402.417419 285 400.178528 C 284.982666 397.939606 285.668274 360.330994 285 359.238403 C 284.331726 358.145874 284.784027 354.353394 283 353.217834 C 281.215973 352.082275 279.79483 351.761536 277 352.013733 Z"/>
            <path id="path17" fill="#2e7a6e" fill-rule="evenodd" stroke="#000000" stroke-width="3" stroke-linecap="round" stroke-linejoin="round" d="M 245.874008 460.93045 L 243.072998 487.580322 C 243.072998 487.580322 243.780701 493.23938 249.201721 493.939911 C 254.622742 494.640472 254.587402 490.817017 255.856644 488.107452 C 257.125885 485.397888 259.761078 450.959167 259.761078 450.959167 C 259.761078 450.959167 259.124878 448.632782 257.112671 447.414825 C 255.100433 446.196869 251.989136 446.57312 250.135147 449.130951 C 248.281158 451.688751 249.10994 450.412537 247.384903 453.740845 C 245.659882 457.069153 245.874008 460.93045 245.874008 460.93045 Z"/>
            <path id="path18" fill="#2e7a6e" fill-rule="evenodd" stroke="#000000" stroke-width="3" stroke-linecap="round" stroke-linejoin="round" d="M 273.175415 451.166718 C 273.175415 451.166718 268.184601 479.50473 269.100464 483.561127 C 270.016327 487.617554 273.209381 490.606476 275.028992 490.917114 C 276.848572 491.227753 280.67807 487.260895 280.944153 485.647583 C 281.210266 484.034241 284.635193 455.044739 284.356262 453.183502 C 284.077362 451.322266 284.064209 445.871796 281.829468 445.343445 C 279.594727 444.815094 275.876587 444.158569 274.36319 446.241913 C 272.849823 448.325256 273.175415 451.166718 273.175415 451.166718 Z"/>
            <path id="path19" fill="#2e7a6e" fill-rule="evenodd" stroke="#000000" stroke-width="3" stroke-linecap="round" stroke-linejoin="round" d="M 250 353 C 250 353 247.382202 353.553589 246 356 C 244.617798 358.446411 244.343414 397.171875 245 398 C 245.656586 398.828125 248.850616 404.096191 253 405 C 257.149384 405.903809 258.734741 402.178772 260 400 C 261.265259 397.821228 261.402222 359.467224 260 358 C 258.597778 356.532776 256.716003 353.195435 256 352 C 255.283997 350.804565 250 353 250 353 Z"/>
            <path id="--4" fill="#2e7a6e" fill-rule="evenodd" stroke="#000000" stroke-width="3" stroke-linecap="round" stroke-linejoin="round" d="M 238.418152 618.91748 C 238.418152 618.91748 236.612946 617.839722 234.600128 618.44751 C 232.587311 619.055359 213.376556 640.067993 213.353653 640.866577 C 213.33075 641.665161 212.609543 646.227356 214.59465 648.908875 C 216.579758 651.590393 219.34053 650.391113 221.153198 649.867859 C 222.965881 649.344604 241.913452 628.462524 241.814133 626.921631 C 241.714813 625.380676 242.254639 622.565186 242.423447 621.534546 C 242.592255 620.503967 238.418152 618.91748 238.418152 618.91748 Z"/>
            <path id="path20" fill="#2e7a6e" fill-rule="evenodd" stroke="#000000" stroke-width="3" stroke-linecap="round" stroke-linejoin="round" d="M 263.507904 203.102051 L 259.991272 231.823669 C 259.991272 231.823669 259.291809 236.758362 264.427277 238.488403 C 269.562775 240.218384 271.780396 236.778625 272.737457 235.292542 C 273.694489 233.806519 277.563416 207.24762 276.322205 205.792297 C 275.081024 204.336975 274.402924 202.622009 270.617523 202.154907 C 266.832123 201.687744 263.507904 203.102051 263.507904 203.102051 Z"/>
            <path id="--5" fill="#2e7a6e" fill-rule="evenodd" stroke="#000000" stroke-width="3" stroke-linecap="round" stroke-linejoin="round" d="M 171.013245 658.158447 L 145.334717 670.679443 C 145.334717 670.679443 140.871048 672.750732 142.231461 677.99231 C 143.591873 683.233887 147.64389 683.241943 149.393875 683.244507 C 151.143845 683.247192 175.224274 672.18689 175.753723 670.361328 C 176.283173 668.535767 177.333618 667.042908 175.662201 663.614563 C 173.990768 660.186279 171.013245 658.158447 171.013245 658.158447 Z"/>
            <path id="--6" fill="#2e7a6e" fill-rule="evenodd" stroke="#000000" stroke-width="3" stroke-linecap="round" stroke-linejoin="round" d="M 256.241364 280.395508 L 257.235413 308.946716 C 257.235413 308.946716 257.312103 313.866943 262.65387 314.756104 C 267.995636 315.645264 269.651062 311.946838 270.365234 310.349182 C 271.079407 308.751587 270.769745 282.254395 269.317352 281.028198 C 267.86496 279.802002 266.928406 278.235168 263.116669 278.367676 C 259.304901 278.500183 256.241364 280.395508 256.241364 280.395508 Z"/>
            <path id="--3" fill="#2e7a6e" fill-rule="evenodd" stroke="#000000" stroke-width="3" stroke-linecap="round" stroke-linejoin="round" d="M 272.085907 546.779419 L 264.699768 572.537964 C 264.699768 572.537964 261.923676 577.519897 256.634949 576.138672 C 251.346237 574.757446 252.811295 571.225647 252.649506 568.237915 C 252.487701 565.250122 262.945343 532.33197 262.945343 532.33197 C 262.945343 532.33197 264.406708 530.41333 266.728668 530.037842 C 269.050629 529.662354 271.794434 531.176758 272.555237 534.242798 C 273.316071 537.308899 273.025696 535.815186 273.378326 539.547302 C 273.730927 543.279419 272.085907 546.779419 272.085907 546.779419 Z"/>
            <path id="--2" fill="#2e7a6e" fill-rule="evenodd" stroke="#000000" stroke-width="3" stroke-linecap="round" stroke-linejoin="round" d="M 247.909561 527.608765 C 247.909561 527.608765 250.025452 528.554565 250.753052 531.058289 C 251.480652 533.562012 244.708984 569.639282 244.003387 570.301758 C 243.297806 570.964294 239.641205 575.340393 235.96521 575.498596 C 232.28923 575.656738 231.620911 571.929932 230.943893 569.694458 C 230.266891 567.459106 237.087708 531.75 238.540085 530.61554 C 239.992447 529.481079 242.188995 526.685486 243.011322 525.69104 C 243.833633 524.696533 247.909561 527.608765 247.909561 527.608765 Z"/>
            <path id="-" fill="#2e7a6e" fill-rule="evenodd" stroke="#000000" stroke-width="3" stroke-linecap="round" stroke-linejoin="round" d="M 230.663651 604.217346 L 213.029678 636.760254 C 213.029678 636.760254 210.076843 642.408203 204.699554 641.188477 C 199.322266 639.968811 199.984451 635.003052 200.271347 632.858398 C 200.558243 630.713684 216.366409 600.254272 218.405319 599.449402 C 220.444229 598.644531 222.213806 597.229492 225.601471 598.985291 C 228.989151 600.741089 230.663651 604.217346 230.663651 604.217346 Z"/>
        </g>
    </g>
</svg>
